<?xml version="1.0" encoding="iso-8859-1"?>
<!-- Uploaded to: SVG Repo, www.svgrepo.com, Generator: SVG Repo Mixer Tools -->
<svg fill="#000000" height="800px" width="800px" version="1.1" id="Layer_1" xmlns="http://www.w3.org/2000/svg" xmlns:xlink="http://www.w3.org/1999/xlink" 
	 viewBox="0 0 512 512" xml:space="preserve">
<g>
	<g>
		<path d="M317.332,79.555c-30.247-30.246-70.789-46.905-114.16-46.905c-45.177,0-87.905,17.847-120.312,50.253
			c-65.567,65.566-67.07,170.75-3.35,234.47c30.247,30.246,70.789,46.903,114.16,46.903c37.532,0,73.366-12.328,103.003-35.077
			c0.092-0.071,0.185-0.141,0.277-0.211c0.724-0.557,1.443-1.121,2.158-1.691c0.287-0.228,0.572-0.459,0.858-0.689
			c0.626-0.505,1.253-1.009,1.873-1.524c0.66-0.547,1.314-1.103,1.967-1.661c0.564-0.482,1.124-0.968,1.683-1.458
			c0.611-0.535,1.219-1.072,1.824-1.617c0.366-0.33,0.73-0.663,1.094-0.997c0.638-0.585,1.272-1.174,1.902-1.769
			c0.305-0.289,0.613-0.575,0.916-0.867c0.927-0.887,1.848-1.782,2.758-2.692c1.028-1.028,2.04-2.065,3.037-3.113
			c15.25-16.014,27.085-34.441,35.208-54.835c0.097-0.244,0.179-0.492,0.251-0.741C375.796,195.835,364.237,126.461,317.332,79.555z
			 M308.491,297.031c-0.079,0.088-0.156,0.177-0.236,0.265c-0.73,0.806-1.476,1.603-2.226,2.397
			c-0.147,0.156-0.291,0.316-0.439,0.471c-0.887,0.931-1.787,1.854-2.701,2.769c-1.246,1.246-2.516,2.461-3.796,3.66
			c-0.29,0.271-0.579,0.541-0.87,0.809c-2.666,2.46-5.4,4.821-8.205,7.075c-0.135,0.109-0.271,0.218-0.406,0.326
			c-19.663,15.698-42.615,26.329-67.298,31.059l-13.838-1.364L187.488,241.36c-0.737-3.623-3.906-6.24-7.603-6.279
			c-25.664-0.27-56.89-2.789-62.589-6.388c-0.336-0.212-3.52-2.46-11.716-15.811c-3.088-5.03-8.076-8.998-12.899-12.835
			c-3.701-2.945-7.895-6.281-9.246-8.849c-1.139-2.166-1.205-4.682-0.182-6.901c1.023-2.217,2.975-3.798,5.354-4.336l60.186-13.581
			c1.561-0.352,2.977-1.174,4.058-2.355l23.217-25.363l27.119-3.657v5.005c-0.001,14.132,11.497,25.629,25.628,25.629
			c4.332,0,7.843-3.512,7.843-7.843c0-4.331-3.51-7.843-7.843-7.843c-5.484,0-9.945-4.461-9.945-9.945v-12.739l13.32-41.13
			c0.533-1.644,1.868-1.889,2.616-1.889c0.806,0,1.892,0.284,2.482,1.641l19.145,44.025l2.16,33.955
			c0.076,1.214,0.435,2.393,1.046,3.444c19.666,33.832,45.292,63.142,76.213,87.179
			C329.285,269.691,320.167,284.097,308.491,297.031z M341.592,239.015c-27.109-21.821-49.78-48.009-67.462-77.996L272,127.552
			c-0.057-0.907-0.272-1.797-0.635-2.63l-19.692-45.284c-2.97-6.83-9.432-11.072-16.866-11.072c-8.147,0-15.032,5.002-17.538,12.742
			l-12.182,37.613l-33.933,4.575c-1.821,0.246-3.497,1.122-4.737,2.477l-23.476,25.646l-57.792,13.041
			c-7.178,1.624-13.061,6.387-16.142,13.068c-3.081,6.683-2.883,14.253,0.545,20.77c2.886,5.487,8.212,9.724,13.362,13.822
			c3.762,2.993,7.653,6.088,9.297,8.767c9.166,14.931,13.744,18.995,16.708,20.867c10.565,6.671,46.587,8.307,64.454,8.706
			l19.927,97.925c-39.041-0.094-75.5-15.107-102.698-42.304C32.999,248.677,34.5,153.446,93.951,93.995
			c29.443-29.443,68.231-45.659,109.219-45.659c39.181,0,75.784,15.026,103.068,42.31
			C345.856,130.265,357.514,187.681,341.592,239.015z"/>
	</g>
</g>
<g>
	<g>
		<path d="M182.024,152.827c-4.332,0-7.843,3.512-7.843,7.843v2.375c0,4.331,3.51,7.843,7.843,7.843s7.843-3.511,7.843-7.843v-2.375
			C189.867,156.339,186.357,152.827,182.024,152.827z"/>
	</g>
</g>
<g>
	<g>
		<path d="M509.661,451.676L396.034,338.049c-3.063-3.063-8.028-3.064-11.092,0l-1.931,1.931l-26.383-26.383
			c25.428-34.169,39.506-75.081,40.147-117.873c0.795-53.027-19.12-102.584-56.076-139.54
			c-73.722-73.722-193.674-75.056-273.084-3.04c-3.208,2.91-3.451,7.87-0.542,11.078c2.91,3.209,7.87,3.45,11.078,0.542
			c73.207-66.387,183.659-65.285,251.455,2.512c33.931,33.93,52.216,79.465,51.485,128.213
			c-0.623,41.549-14.997,81.193-40.869,113.7c-0.052,0.062-0.11,0.117-0.16,0.181c-2.242,2.814-4.566,5.566-6.951,8.243
			c-0.059,0.066-0.117,0.132-0.176,0.198c-1.063,1.19-2.143,2.36-3.229,3.518c-0.17,0.182-0.338,0.366-0.509,0.547
			c-1.198,1.266-2.408,2.514-3.63,3.736c-1.225,1.224-2.473,2.435-3.741,3.635c-0.222,0.21-0.449,0.414-0.671,0.623
			c-1.079,1.011-2.169,2.016-3.275,3.006c-0.201,0.18-0.405,0.357-0.607,0.536c-1.141,1.012-2.294,2.015-3.461,3.003
			c-0.191,0.162-0.384,0.323-0.576,0.484c-1.165,0.979-2.342,1.944-3.53,2.896c-72.534,58.038-177.287,55.041-242.472-10.146
			C1.509,263.927-1.281,155.392,60.882,82.558c2.811-3.294,2.42-8.244-0.874-11.056c-3.296-2.813-8.247-2.42-11.057,0.874
			C16.287,110.648-1.064,159.112,0.097,208.84c1.168,50.086,21.072,96.931,56.045,131.902
			c37.397,37.396,86.717,56.01,136.541,56.005c42.258-0.004,84.877-13.407,120.853-40.095l26.401,26.402l-1.931,1.931
			c-1.47,1.47-2.296,3.466-2.296,5.545c0,2.08,0.826,4.075,2.296,5.545l22.833,22.833c3.064,3.063,8.029,3.063,11.092,0
			s3.063-8.029,0-11.091l-17.288-17.288l1.927-1.927c0.002-0.002,0.003-0.003,0.005-0.004l15.991-15.991l17.923-17.922
			l102.534,102.534l-35.845,35.845l-67.048-67.049c-3.064-3.063-8.029-3.063-11.092,0c-3.063,3.063-3.063,8.029,0,11.091
			l72.595,72.595c1.532,1.531,3.54,2.297,5.546,2.297c2.007,0,4.015-0.765,5.546-2.297l46.937-46.937
			C512.723,459.704,512.723,454.738,509.661,451.676z M361.475,361.518l-10.445,10.445l-25.191-25.19
			c0.449-0.389,0.89-0.785,1.334-1.177c0.983-0.868,1.962-1.744,2.933-2.635c0.694-0.636,1.383-1.274,2.067-1.917
			c0.406-0.382,0.81-0.763,1.213-1.149c1.104-1.056,2.199-2.118,3.273-3.191c1.018-1.018,2.025-2.054,3.026-3.099
			c0.452-0.471,0.897-0.944,1.344-1.418c0.467-0.497,0.933-0.995,1.396-1.499c1.462-1.582,2.906-3.177,4.313-4.796l25.181,25.181
			L361.475,361.518z"/>
	</g>
</g>
</svg>